<svg width="64" height="64" viewBox="0 0 64 64" xmlns="http://www.w3.org/2000/svg">
  <!-- Base superior -->
  <rect x="8" y="6" width="48" height="4" rx="2" fill="#FBEDD4"/>
  
  <!-- Cono superior (vidrio) -->
  <path d="M12 10 L32 32 L52 10 Z" fill="#FBEDD4" opacity="0.9"/>
  
  <!-- Arena en cono superior -->
  <path d="M20 16 L32 32 L44 16 Z" fill="#D4C4A0"/>
  
  <!-- Cuello estrecho -->
  <rect x="30" y="30" width="4" height="4" rx="2" fill="#FBEDD4"/>
  
  <!-- Arena cayendo (partículas pequeñas) -->
  <circle cx="31" cy="28" r="1" fill="#D4C4A0" opacity="0.7"/>
  <circle cx="33" cy="26" r="0.8" fill="#D4C4A0" opacity="0.6"/>
  <circle cx="30" cy="24" r="0.9" fill="#D4C4A0" opacity="0.5"/>
  
  <!-- Cono inferior (vidrio) -->
  <path d="M12 54 L32 32 L52 54 Z" fill="#FBEDD4" opacity="0.9"/>
  
  <!-- Arena acumulada en cono inferior -->
  <path d="M18 54 L32 40 L46 54 Z" fill="#D4C4A0"/>
  
  <!-- Base inferior -->
  <rect x="8" y="54" width="48" height="4" rx="2" fill="#FBEDD4"/>
  
  <!-- Detalles de marco metálico -->
  <rect x="8" y="6" width="48" height="2" rx="1" fill="#E6D6B4"/>
  <rect x="8" y="56" width="48" height="2" rx="1" fill="#E6D6B4"/>
</svg>