<svg width="64" height="64" viewBox="0 0 64 64" xmlns="http://www.w3.org/2000/svg">
  <!-- Nube con múltiples lóbulos -->
  <circle cx="20" cy="18" r="8" fill="#FBEDD4" opacity="0.9"/>
  <circle cx="32" cy="15" r="10" fill="#FBEDD4" opacity="0.9"/>
  <circle cx="46" cy="18" r="7" fill="#FBEDD4" opacity="0.9"/>
  <circle cx="28" cy="22" r="6" fill="#FBEDD4" opacity="0.9"/>
  <circle cx="38" cy="24" r="5.5" fill="#FBEDD4" opacity="0.9"/>
  
  <!-- Gotas de lluvia bien separadas y visibles -->
  <!-- Columna izquierda -->
  <ellipse cx="18" cy="35" rx="1.5" ry="3" fill="#FBEDD4" opacity="0.8"/>
  <ellipse cx="18" cy="42" rx="1.5" ry="3" fill="#FBEDD4" opacity="0.8"/>
  <ellipse cx="18" cy="49" rx="1.5" ry="3" fill="#FBEDD4" opacity="0.8"/>
  
  <!-- Columna centro-izquierda -->
  <ellipse cx="26" cy="38" rx="1.5" ry="3" fill="#FBEDD4" opacity="0.8"/>
  <ellipse cx="26" cy="45" rx="1.5" ry="3" fill="#FBEDD4" opacity="0.8"/>
  <ellipse cx="26" cy="52" rx="1.5" ry="3" fill="#FBEDD4" opacity="0.8"/>
  
  <!-- Columna centro -->
  <ellipse cx="34" cy="36" rx="1.5" ry="3" fill="#FBEDD4" opacity="0.8"/>
  <ellipse cx="34" cy="43" rx="1.5" ry="3" fill="#FBEDD4" opacity="0.8"/>
  <ellipse cx="34" cy="50" rx="1.5" ry="3" fill="#FBEDD4" opacity="0.8"/>
  
  <!-- Columna centro-derecha -->
  <ellipse cx="42" cy="39" rx="1.5" ry="3" fill="#FBEDD4" opacity="0.8"/>
  <ellipse cx="42" cy="46" rx="1.5" ry="3" fill="#FBEDD4" opacity="0.8"/>
  <ellipse cx="42" cy="53" rx="1.5" ry="3" fill="#FBEDD4" opacity="0.8"/>
  
  <!-- Columna derecha -->
  <ellipse cx="48" cy="37" rx="1.5" ry="3" fill="#FBEDD4" opacity="0.8"/>
  <ellipse cx="48" cy="44" rx="1.5" ry="3" fill="#FBEDD4" opacity="0.8"/>
  
  <!-- Sombra sutil de la nube -->
  <circle cx="21" cy="19" r="7.5" fill="#E6D6B4" opacity="0.3"/>
  <circle cx="33" cy="16" r="9.5" fill="#E6D6B4" opacity="0.3"/>
  <circle cx="47" cy="19" r="6.5" fill="#E6D6B4" opacity="0.3"/>
</svg>